<?xml version="1.0" encoding="utf-8"?>

<!-- Uploaded to: SVG Repo, www.svgrepo.com, Generator: SVG Repo Mixer Tools -->
<svg version="1.1" id="Icons" xmlns="http://www.w3.org/2000/svg" xmlns:xlink="http://www.w3.org/1999/xlink" 
	 viewBox="0 0 32 32" xml:space="preserve">
<style type="text/css">
	.st0{fill:none;stroke:#000000;stroke-width:2;stroke-linecap:round;stroke-linejoin:round;stroke-miterlimit:10;}
</style>
<polygon class="st0" points="31,17 21,17 21,11 28,11 "/>
<circle class="st0" cx="7" cy="24" r="3"/>
<circle class="st0" cx="26" cy="24" r="3"/>
<rect x="2" y="9" class="st0" width="5" height="4"/>
<rect x="2" y="13" class="st0" width="5" height="4"/>
<rect x="7" y="9" class="st0" width="5" height="4"/>
<rect x="7" y="13" class="st0" width="5" height="4"/>
<rect x="12" y="9" class="st0" width="5" height="4"/>
<rect x="12" y="13" class="st0" width="5" height="4"/>
<polyline class="st0" points="9.8,23 21,23 21,17 1,17 1,23 4.2,23 "/>
<polyline class="st0" points="23.2,23 21,23 21,17 31,17 31,23 28.8,23 "/>
</svg>